<svg width="27" height="27" viewBox="0 0 27 27" fill="none" xmlns="http://www.w3.org/2000/svg">
<g clip-path="url(#clip0_18_781)">
<path fill-rule="evenodd" clip-rule="evenodd" d="M20.9191 16.1611C21.4471 14.7547 21.7523 13.493 21.9374 11.729C22.2223 9.00936 21.5892 5.86909 19.6822 3.80013C19.2685 3.3511 18.8636 3.13297 18.5351 2.81146C17.9029 3.28875 16.8946 4.59507 16.4538 5.21309C15.3118 6.81257 14.4675 8.60941 14.2024 10.6074C13.8625 13.1679 14.7727 14.1436 14.1809 16.8482C13.569 19.6436 11.2023 22.4781 8.88962 24.1879C9.52915 24.6502 11.1783 24.766 12.1618 24.6326C16.2968 24.0717 19.5711 19.7522 20.9191 16.1611Z" fill="white"/>
<path fill-rule="evenodd" clip-rule="evenodd" d="M6.90768 22.7612C7.2641 23.1457 7.63363 23.4691 8.01183 23.7456C8.51075 23.513 9.77537 21.8489 10.0988 21.4061C11.1569 19.9573 12.2152 17.8114 12.4592 16.0535C12.8113 13.5168 11.9313 12.1144 12.5104 9.82292C13.2388 6.94064 15.2824 4.39336 17.8044 2.48816C17.5651 2.30187 17.0426 2.17115 16.7033 2.09555C14.6225 1.63282 12.3411 2.48875 10.6691 3.72976C10.3045 4.00018 9.96808 4.28719 9.64833 4.58703C7.82163 6.3013 6.06648 9.13044 5.43435 11.528C5.38282 11.7223 5.32427 11.8947 5.27474 12.0871C5.0184 13.0825 4.84392 13.826 4.76627 14.9475C4.58486 17.5841 5.01907 20.7255 6.90768 22.7612Z" fill="white"/>
</g>
<defs>
<clipPath id="clip0_18_781">
<rect width="20.182" height="20.1971" fill="white" transform="translate(0 8.28131) rotate(-24.2257)"/>
</clipPath>
</defs>
</svg>
