<svg width="56" height="70" viewBox="0 0 56 70" fill="none" xmlns="http://www.w3.org/2000/svg">
<path fill-rule="evenodd" clip-rule="evenodd" d="M19.3531 54.5611C19.2564 54.5544 19.1583 54.5431 19.0609 54.5252C18.0434 54.3431 17.2815 53.5984 17.0754 52.5862C16.0048 47.3296 17.029 42.9639 17.0178 37.783C17.0118 35.0162 16.6169 32.8606 15.2503 30.4414C14.7686 29.588 14.1138 29.0194 13.7272 28.0259C13.4155 27.225 13.5204 26.3904 14.0209 25.6913C14.5214 24.9923 15.2773 24.6237 16.1359 24.6604C22.0158 24.9129 27.4469 32.0028 29.4998 37.2563C30.9878 35.9849 32.469 34.9255 34.6342 33.8511C36.263 33.0442 38.5909 32.3032 40.3995 32.1092C43.3155 31.7975 44.1748 32.2253 46.7207 33.2008C47.8168 33.6218 48.4551 34.718 48.2791 35.8793C47.8925 38.4289 46.8818 40.687 45.2282 42.665C42.7543 45.6251 39.2607 47.4862 35.9042 49.2596C33.4302 50.567 30.5577 52.0205 28.564 54.0074C27.4312 55.1365 26.5396 56.3705 25.8826 57.8285C25.4323 58.8272 25.1131 60.0791 24.5489 60.9827C24.0897 61.7184 23.3494 62.1358 22.4818 62.1455C21.6142 62.156 20.8635 61.7567 20.387 61.0322C19.2557 59.3097 19.0691 56.9384 19.3531 54.5611ZM27.91 4.31751C25.8144 5.60767 28.8937 7.05442 29.6174 9.16198C30.8611 12.7815 25.0142 15.6892 25.6173 20.8401C26.2849 26.5424 31.5287 26.3829 29.0255 22.4892C26.885 19.1581 29.5305 16.9224 31.1466 14.217C33.0114 11.0942 32.941 8.22246 30.3734 5.44584C29.7965 4.82174 29.0098 3.64021 27.91 4.31751ZM39.5072 8.24718C37.3442 9.45268 40.5463 11.1684 41.1892 13.1134C42.4201 16.8385 36.7388 19.5859 37.234 24.7098C37.8109 30.6886 43.057 30.1889 40.6715 26.5297C38.4927 23.1867 41.0738 20.9802 42.7625 18.1601C43.9328 16.2047 44.5884 14.3788 43.5889 11.9386C43.0832 10.7046 41.0536 7.38558 39.5072 8.24718ZM16.342 0.0551823C14.86 0.55866 15.4556 1.76416 16.1771 2.55309C19.2032 5.86016 18.4555 7.19677 16.0138 10.7631C15.0668 12.1469 13.7549 14.3084 13.9916 16.6235C14.621 22.7903 19.7254 22.1955 17.5003 18.6681C13.8965 12.9545 23.0587 10.3907 20.354 3.95938C19.8423 2.74189 17.7647 -0.427317 16.342 0.0551823ZM28.6554 65.8497C28.9686 62.5403 31.014 59.3097 32.5611 57.6494C35.9544 54.0082 43.1446 51.8527 47.0511 48.4295C50.5245 45.3869 50.0839 44.9074 51.8641 41.4939C53.612 44.4901 52.3938 49.0955 51.2542 51.9358C49.035 57.4651 44.1756 62.7172 38.8696 65.3522C36.0907 66.7322 31.3961 67.9572 28.6554 65.8497ZM55.2948 47.0187C55.9758 40.7544 52.2687 35.7294 50.3994 37.4758C49.815 38.0205 49.6809 39.6186 49.3939 40.4832C45.7504 51.4331 32.2607 49.2319 27.3435 60.9692C26.8918 62.0474 25.4098 66.1044 26.1066 67.2477C26.7554 68.3123 29.5635 69.4339 31.4021 69.628C41.6012 70.7054 54.0548 58.4174 55.2948 47.0187ZM15.807 61.8226C12.464 61.4053 9.68737 58.4046 8.2601 56.6792C4.10416 51.6526 1.98611 43.8338 2.94811 37.0975C3.4441 33.6203 5.0834 30.2466 7.63225 29.2187C8.45789 29.7064 9.37119 31.0835 9.99679 32.1009C14.7304 39.7984 8.05406 49.2484 13.653 58.7822L15.807 61.8226ZM14.3348 42.6597C14.6899 37.8295 14.3131 33.8331 12.0736 30.3702C11.4563 29.4157 9.28578 26.7253 8.52982 26.4158C7.12203 25.8404 4.26973 28.1503 3.7775 28.689C-1.30523 34.2467 -0.754543 44.5755 2.45587 52.0265C9.34872 68.0239 22.6594 65.529 19.9502 62.0856C18.6144 60.3878 17.0567 60.0874 15.1552 55.8827C13.3915 51.9845 14.0066 47.1258 14.3348 42.6597ZM22.4526 59.6746C20.7556 57.0927 22.3118 51.6347 23.3629 49.1472C24.044 47.5334 24.779 46.286 25.6383 44.9756C26.3576 43.8772 27.6822 42.2469 28.4659 41.5239C31.0035 39.1826 32.3453 37.7448 35.7318 36.0658C36.9688 35.4522 39.0988 34.7344 40.6632 34.5666C43.2803 34.2864 43.8811 34.7592 45.8359 35.5084C44.3711 45.1749 32.7334 46.3631 26.8198 52.2573C23.4506 55.6145 23.1382 58.5762 22.4526 59.6746ZM19.4894 37.7778C19.4812 34.4692 18.9425 31.9541 17.4021 29.2262C17.0095 28.5309 16.2573 27.7127 16.0303 27.1298C20.9167 27.3396 25.8481 34.2984 27.3818 38.6499C26.6767 40.0712 23.545 41.9352 20.8822 48.2369C20.5204 49.0933 19.8243 51.5657 19.4969 52.0932C18.4705 47.0539 19.4992 42.8275 19.4894 37.7778Z" fill="#F1BC7F"/>
</svg>
