<svg width="60" height="60" viewBox="0 0 60 60" fill="none" xmlns="http://www.w3.org/2000/svg">
<path fill-rule="evenodd" clip-rule="evenodd" d="M2.56378 53.0939L49.2973 53.0917C49.0853 54.7939 47.5448 56.2938 46.2165 56.855C44.5622 57.554 41.6799 57.2933 39.7409 57.2933H12.2894C10.4531 57.2933 7.29662 57.5158 5.76146 56.9067C4.30048 56.3268 2.82451 54.8786 2.56378 53.0939ZM15.837 22.387C17.6134 23.2187 18.4248 21.6835 17.5894 20.7582C16.8867 19.9813 15.162 20.3859 15.837 22.387ZM32.9837 45.9763C31.5429 46.3884 32.0457 48.5641 33.5928 48.1618C34.9422 47.8104 34.5855 45.5178 32.9837 45.9763ZM41.7968 30.6165C40.3785 31.2054 41.7181 34.0779 39.2644 39.1606C37.8109 42.1725 36.0091 43.0401 35.9724 44.1182C35.9439 44.9559 36.7103 45.5133 37.527 45.1904C38.8291 44.6756 41.3413 40.4493 42.0373 38.6512C42.5355 37.364 44.981 29.2934 41.7968 30.6165ZM30.0715 2.77614C28.9102 3.35753 28.4059 5.52428 28.5446 6.96354C28.8457 10.0863 32.8661 11.6664 30.4259 15.2544C30.043 15.8171 29.3762 16.2164 29.4601 17.0915C29.5365 17.882 30.3839 18.3465 31.1474 17.9277C32.5829 17.1402 34.653 13.0824 32.5424 9.68846C31.8696 8.60808 30.566 7.5839 30.8806 5.85095C31.0395 4.97361 31.6703 4.40345 31.713 3.81756C31.7819 2.85705 30.8484 2.38654 30.0715 2.77614ZM23.7907 0.0594574C22.5942 0.467034 21.9664 2.48169 22.0743 4.13598C22.2998 7.57266 26.2235 8.67776 24.1227 12.3827C23.7915 12.9671 23.1 13.469 23.0116 14.1448C22.8864 15.0993 23.6656 15.7347 24.5752 15.3826C25.2982 15.1016 26.5284 13.0442 26.8169 11.9414C28.0523 7.21603 24.0005 6.12891 24.4081 3.26688C24.5437 2.31761 25.1768 1.91228 25.2517 1.26645C25.3529 0.400354 24.5662 -0.204269 23.7907 0.0594574ZM17.1691 2.71545C16.1674 3.20244 15.5133 5.28603 15.6137 6.76724C15.8355 10.0256 19.8918 11.7061 17.5879 15.0971C17.3092 15.5084 16.5727 16.2741 16.5173 16.839C16.339 18.6559 19.0751 18.844 20.3121 14.6895C21.7251 9.9417 17.4725 8.7834 17.9678 5.78726C18.1184 4.87621 18.759 4.47837 18.8024 3.81081C18.8556 2.98517 18.0142 2.30563 17.1691 2.71545ZM48.2708 37.6996C48.4372 36.6297 48.7076 35.7179 48.8283 34.5671C48.9534 33.3819 48.9009 32.1606 49.0388 31.0248L52.677 31.0218C53.1093 34.4465 52.0349 37.9971 48.2708 37.6996ZM48.9916 26.3527L57.3672 26.3497C57.5103 28.4273 57.4106 30.9536 57.3979 33.0732C57.3754 36.898 55.7241 39.8417 52.3668 41.5229C50.5522 42.431 48.8455 42.4167 46.6435 42.4093L47.5254 40.1039C51.1209 40.0627 53.9837 38.8032 54.8977 34.9537C55.1202 34.0187 55.2948 29.8575 54.822 29.1855C54.2534 28.3756 50.6564 28.6865 49.059 28.6783L48.9916 26.3527ZM9.12921 50.7743C7.29886 50.7856 5.46626 50.7766 3.63591 50.7766C1.46391 50.7766 -0.217341 50.2341 0.117562 52.8459C0.526637 56.0331 2.65668 58.2531 5.13735 59.1746C7.21569 59.9463 13.3885 59.6294 16.0191 59.6294C23.5285 59.6294 31.038 59.6294 38.5474 59.6294C43.0855 59.6294 48.6784 60.4805 51.0909 55.1648C51.5532 54.1458 52.3961 51.4763 51.1426 50.9137C50.4241 50.5915 41.5286 50.808 39.9297 50.7668C40.0279 50.6057 42.7925 48.1236 44.019 46.4506C44.3891 45.9456 44.8364 45.1994 45.2612 44.7753C49.6299 44.543 51.4213 45.078 54.8228 42.7839C56.803 41.448 58.8176 39.0422 59.4627 35.9217C59.7265 34.6458 59.9827 25.8454 59.6335 24.804C59.1997 23.5071 56.1272 24.0301 54.8093 24.0301C52.8726 24.0301 50.9298 24.0451 48.9938 24.0256C48.9938 20.021 49.2426 20.3956 45.2612 20.3956L23.3232 20.3904C22.2503 20.3948 21.0576 20.7575 21.6495 22.0649C22.0593 22.9692 23.6147 22.7122 24.6726 22.7122H46.6765C46.7132 31.55 47.2804 37.6974 42.8472 44.086C41.0378 46.6926 39.1798 48.5072 36.5021 50.2768C35.4734 50.9571 35.3857 50.7788 33.9225 50.7766H15.1237C13.6156 50.7796 13.623 50.9519 12.5547 50.2648C9.89716 48.5559 7.98065 46.6356 6.21922 44.0665C1.73288 37.5266 2.36074 31.6422 2.39371 22.7122C4.67209 22.7122 8.01212 22.9122 10.1609 22.704C11.3462 22.5886 11.7815 21.2467 10.8734 20.6166C10.2403 20.1768 4.50651 20.3956 3.33772 20.3956C-0.696095 20.3948 0.0553705 19.737 0.0553705 28.7464C0.0553705 36.1353 0.869032 41.0861 5.30593 46.7697C6.46198 48.2509 6.18776 47.7639 7.14377 48.8106C7.56933 49.2766 8.92692 50.3877 9.12921 50.7743Z" fill="#F1BC7F"/>
</svg>
