<svg width="66" height="61" viewBox="0 0 66 61" fill="none" xmlns="http://www.w3.org/2000/svg">
<path fill-rule="evenodd" clip-rule="evenodd" d="M38.2741 21.0982L38.3955 20.812C38.4779 20.5131 38.5326 20.2074 38.6165 19.9092C39.0556 18.3433 39.6872 16.7962 40.4858 15.3801C41.5018 13.5768 42.6151 11.9225 43.8761 10.2854C46.3627 7.05854 49.3072 4.3501 52.367 1.68287C53.3777 0.801781 54.4671 0.355245 55.7565 1.00557C57.5883 1.92936 59.0126 8.38841 59.5198 10.3896C60.2061 13.0958 60.6931 15.757 60.7328 18.5546C60.7673 20.9439 60.4901 23.3309 60.1724 25.6954C60.5605 26.0903 60.9643 26.4349 61.3801 26.8028C62.1923 27.5206 62.7437 28.2226 63.3221 29.1434C64.2287 30.5864 64.9007 32.4242 65.1667 34.1122C65.9631 39.159 64.4669 44.4327 61.9241 48.7827C59.3407 53.2024 55.2777 57.3209 50.4812 59.2741C46.9696 60.7044 42.6406 60.7553 39.2893 58.8665C39.1207 58.7714 38.5768 58.4447 38.373 58.4762C38.2749 58.4912 38.131 58.5788 38.0448 58.6283C37.7916 58.7729 37.5459 58.907 37.2784 59.0269C36.261 59.4846 35.1551 59.8173 34.0725 60.0788C32.8325 60.3792 31.5648 60.5957 30.2986 60.7463C28.9118 60.9119 27.5033 61.0025 26.1068 60.9913C24.9335 60.9831 23.6958 60.9074 22.5464 60.6624C22.1479 60.577 21.777 60.3762 21.55 60.0286C21.3597 59.7379 21.3005 59.3805 21.3956 59.0456C21.4998 58.6815 21.768 58.402 22.1216 58.2694C22.2527 58.2199 22.8132 58.2619 22.963 58.2686C23.5519 58.2926 24.1393 58.3143 24.7282 58.3293C26.4694 58.3728 28.2226 58.3638 29.96 58.2447C31.7012 58.1255 34.8599 57.8004 36.3726 56.6803C36.1486 56.3611 35.9208 56.0936 35.6421 55.794C35.3522 55.483 35.1161 55.1886 34.8861 54.8282C34.4898 54.2086 34.1519 53.5156 33.8402 52.8443C30.0439 52.7723 27.1572 51.5848 24.0973 49.3874C22.8626 48.5003 17.7484 48.8644 16.1608 49.0135C15.724 49.0547 15.294 49.1206 14.8549 49.1499C14.257 49.1896 13.3347 49.2038 12.9249 48.6816C12.6447 48.3257 12.7046 47.8642 12.8515 47.4664C13.0545 46.9179 13.9866 46.7216 14.4908 46.6287C15.3816 46.4654 16.3376 46.4099 17.2427 46.3777C18.377 46.3365 19.4956 46.3515 20.6239 46.3657C20.5363 46.2706 20.4539 46.1852 20.4059 46.1335C20.0103 45.7117 19.6147 45.2936 19.2356 44.8561C18.2631 43.7322 17.388 42.4885 16.8389 41.101C15.9945 41.1631 15.1179 41.3489 14.3057 41.5505C13.2096 41.8217 12.124 42.1589 11.0556 42.5215C9.2395 43.1381 7.43388 43.8424 5.67321 44.6028C5.18397 44.8134 4.69247 45.0201 4.20248 45.2299C3.86907 45.373 3.53117 45.5161 3.20526 45.6757C3.10711 45.7237 2.57592 45.9889 2.55944 46.1147C2.54595 46.2211 2.85762 46.5515 2.92355 46.6212C3.3566 47.076 3.81439 47.5038 4.24594 47.9638C4.64003 48.3841 5.10455 48.7842 5.54285 49.1588C6.14372 49.6728 6.76032 50.171 7.38067 50.6618C8.44457 51.5032 9.54293 52.3535 10.657 53.1282C13.0575 54.7975 15.4513 56.1311 18.2069 57.1388C18.5276 57.2564 18.855 57.3389 19.1787 57.4467C19.4671 57.5426 19.7616 57.667 19.9631 57.9053C20.3317 58.3406 20.2216 58.9707 20.0807 59.4734C20.056 59.5625 19.9976 59.6292 19.9129 59.6667C18.5448 60.2608 15.7585 58.9399 14.5245 58.3256C13.0261 57.5794 11.5097 56.6998 10.1116 55.7745C7.78677 54.2356 5.65972 52.5251 3.57239 50.6813C3.12585 50.2872 2.68231 49.8886 2.24102 49.4893C1.65887 48.9625 1.10295 48.522 0.633939 47.8739C-0.101797 46.8572 -0.255388 45.7664 0.484094 44.6792C1.40863 43.3202 6.62997 41.4568 8.22132 40.9017C9.69129 40.3892 11.1807 39.9134 12.6784 39.4894C13.2898 39.3163 13.9049 39.1515 14.5238 39.0046C14.8669 38.9237 15.2168 38.8443 15.5674 38.7821C15.5502 38.7229 15.5337 38.6637 15.5157 38.6045C15.2932 37.8523 15.0085 37.1188 14.7291 36.3869C14.4219 35.5844 14.1237 34.7843 13.8832 33.9586C13.2478 31.7806 13.1025 29.6955 13.355 27.4396C13.5648 25.5748 14.057 23.5961 14.986 21.9531C15.3172 21.3679 15.6911 20.782 16.1009 20.2501C16.5272 19.6979 17.3461 18.7284 18.1365 18.864C18.5508 18.936 18.8078 19.2754 18.9667 19.6387C19.0431 19.8118 19.0805 19.9931 19.0685 20.1827C19.0341 20.7341 18.5396 21.2795 18.2092 21.6946C17.6285 22.4243 17.1655 23.1129 16.7887 23.9745C15.6513 26.5758 15.5772 29.5232 16.0792 32.2834C16.6366 35.3477 17.9237 38.3498 19.608 40.9609C22.5427 45.5079 27.4291 49.8803 33.0543 50.3254C32.9576 49.6586 32.867 48.9903 32.8048 48.3197C32.7261 47.4686 32.6999 46.6205 32.6962 45.7671C31.1243 44.8778 29.6034 43.7345 28.5882 42.2233C27.8097 41.0642 27.4156 39.822 27.2943 38.4375C27.1894 37.2372 27.298 36.0542 27.3699 34.8569C27.4306 33.8372 27.4711 32.7374 27.1826 31.7469C27.0343 31.2397 26.805 30.7797 26.4799 30.3624C26.1974 29.9997 25.9104 29.6626 25.5868 29.3367C25.2931 29.0407 24.9949 28.7538 24.7072 28.4518C24.1558 27.8734 23.1211 27.0785 22.9233 26.2986C22.6401 25.1822 23.0949 24.0621 24.164 23.5789C24.6697 23.3504 25.7381 23.5032 26.2641 23.6081C27.3902 23.8336 28.5118 24.2712 29.497 24.8601C32.4587 26.6312 33.8507 29.512 33.8275 32.9284C33.82 34.0957 33.6724 35.2728 33.7436 36.4385C33.7863 37.1361 33.9489 37.9655 34.3924 38.5469C34.6629 37.7767 35.0217 37.0162 35.3919 36.2999C35.9133 35.293 36.4955 34.313 37.1046 33.357C37.2544 33.121 37.4118 32.8887 37.5728 32.6602C38.2119 31.7552 38.9237 30.9033 39.6504 30.0679C39.9239 29.754 40.2004 29.4431 40.4708 29.1269C40.581 28.998 40.7203 28.8407 40.829 28.6893C40.1547 27.2381 39.1327 25.8033 38.1078 24.5933C36.7704 23.0155 35.2016 21.5642 33.4843 20.4082C30.208 18.2017 26.354 17.0622 22.5255 18.5396C22.285 18.6325 22.049 18.7442 21.8107 18.8431C21.3529 19.0319 20.7453 19.2521 20.2628 19.0356C19.9144 18.8798 19.7391 18.5516 19.6597 18.1935C19.602 17.9342 19.62 17.6728 19.7309 17.43C20.0793 16.6666 21.1761 16.3759 21.9021 16.1076C24.0426 15.3165 26.5743 15.294 28.804 15.7113C30.889 16.1017 32.7718 16.9116 34.5378 18.0759C35.8931 18.9697 37.0829 20.0126 38.2741 21.0982ZM48.9221 23.8688C49.8361 23.6988 50.7569 23.5219 51.674 23.3901C52.3235 23.2964 52.9701 23.2328 53.6264 23.2889C54.2333 23.3399 54.8244 23.4897 55.4088 23.6561C56.2292 23.8891 57.0459 24.1461 57.864 24.391C58.7002 20.8555 58.1869 16.3744 57.5396 12.8673C57.2219 11.1478 56.7709 9.41484 56.2472 7.74632C55.9715 6.86674 55.241 3.93952 54.5247 3.245C54.0422 3.43605 53.6197 3.90057 53.2481 4.23547C48.2373 8.74803 43.0317 13.8308 41.0447 20.4816C40.8469 21.1447 40.6192 21.8564 40.4903 22.5367C40.4304 22.8529 40.3862 23.199 40.4836 23.5122C40.5682 23.7857 40.7623 24.0524 40.9301 24.2809C41.2553 24.726 41.5827 25.156 41.8906 25.6145C42.1813 26.0476 42.4698 26.611 42.8099 27.0298L46.0301 24.8885C46.0555 24.8278 46.0788 24.7529 46.0967 24.699C46.1552 24.5282 46.2091 24.3558 46.2631 24.1835C46.4129 23.7033 46.556 23.2208 46.6991 22.739C46.8302 22.2992 46.9606 21.8587 47.094 21.4196C47.1816 21.1312 47.2685 20.8292 47.3734 20.5468C47.8941 19.1427 48.4688 17.7672 49.1049 16.4118C49.4091 15.763 49.6975 15.0715 50.0452 14.4466C50.2849 14.0151 50.5921 13.5603 51.0626 13.358C51.4559 13.1887 51.8762 13.2299 52.2778 13.346C52.3572 13.3692 52.4179 13.4172 52.4569 13.4899C52.5865 13.7266 52.6689 13.9761 52.6891 14.2458C52.7371 14.8939 52.4059 15.5555 52.1145 16.1151C51.6515 17.0022 51.1825 17.8413 50.7816 18.7644C50.3763 19.6994 49.9747 20.6359 49.6226 21.592C49.3514 22.3262 49.0944 23.0971 48.9221 23.8688ZM25.7936 26.0678C25.8895 26.1562 25.9899 26.2401 26.088 26.3225C26.3742 26.5653 26.6507 26.8035 26.9114 27.0755C27.9888 28.1986 29.0422 29.527 29.5659 31.0112C29.9398 32.0706 29.993 33.0521 29.8971 34.1602C29.8199 35.054 29.67 35.9306 29.6596 36.8311C29.6461 37.9258 29.8379 38.923 30.241 39.9419C30.725 41.1654 31.7933 42.547 33.0505 43.0864C33.9713 41.0493 32.6295 40.799 31.8053 39.0376C31.0261 37.3721 31.2734 35.3349 31.3213 33.5495C31.3775 31.43 31.1842 29.5562 29.5322 28.0233C28.541 27.1032 27.1527 26.4072 25.7936 26.0678ZM51.7174 25.8678C46.3342 26.5308 41.7565 30.659 38.9364 35.0712C37.1795 37.8186 35.8654 41.0163 35.3836 44.2514C34.9528 47.1367 35.1753 50.2122 36.6056 52.8068C37.7766 54.9301 39.4999 56.5836 41.8232 57.3658C45.5843 58.6328 49.72 57.2677 52.8795 55.1294C57.0504 52.3078 60.096 47.9106 61.745 43.192C62.8089 40.1487 63.2157 36.7847 62.4365 33.6245C61.8109 31.0891 60.4219 28.774 58.2229 27.3078C56.2839 26.0146 54.0153 25.5846 51.7174 25.8678ZM58.0319 36.2235C57.4954 38.9919 55.9138 40.8612 53.4796 42.1566C52.6262 42.6106 51.7714 42.977 50.876 43.3359C50.2834 43.5734 49.6496 43.8169 49.1176 44.1735C48.465 44.6096 48.0365 45.1835 47.6694 45.8698C47.0363 47.0535 46.5935 48.516 46.2249 49.8024C46.075 50.3261 45.9806 50.8596 45.8473 51.3863C45.7244 51.868 45.5618 52.3603 45.2404 52.7491C45.0089 53.0293 44.7212 53.2256 44.3818 53.353C43.7464 53.5912 43.0646 53.6549 42.4518 53.3163C40.6005 52.2936 40.6072 48.2201 40.7038 46.3695C40.8777 43.0152 42.2855 40.6005 45.1677 38.8967C46.2301 38.2681 47.3584 37.8089 48.4988 37.3459C49.2944 37.0229 50.3313 36.6281 51.0071 36.0991C51.7421 35.5237 52.2741 33.9811 52.5835 33.1187C52.8405 32.4017 53.0885 31.6593 53.4114 30.97C53.6579 30.4448 54.0175 29.8034 54.5487 29.5225C55.1593 29.1996 55.8629 29.0265 56.5139 29.3449C58.3593 30.2455 58.366 34.4966 58.0319 36.2235ZM55.5647 32.2624C55.4478 32.5681 55.3459 32.8887 55.2523 33.1757C55.1002 33.6387 54.954 34.1175 54.7705 34.5692C53.0345 38.8361 51.5593 38.6218 47.7226 40.312C46.2683 40.9526 44.931 41.8502 44.1001 43.2385C43.3014 44.5736 43.1104 46.1305 43.1688 47.6604C43.1913 48.2538 43.2647 49.5342 43.5089 50.3981C43.9772 48.5587 44.4882 46.7344 45.3056 45.0112C46.3455 42.8174 47.6791 41.9326 49.8751 41.0163C52.9177 39.7479 55.292 38.7836 55.6553 35.1259C55.7153 34.5228 55.7894 33.1112 55.5647 32.2624Z" fill="#F1BC7F"/>
</svg>
