<svg width="74" height="31" viewBox="0 0 74 31" fill="none" xmlns="http://www.w3.org/2000/svg">
<g clip-path="url(#clip0_45_785)">
<path d="M10.6118 22.4898C14.4821 22.4898 17.6196 19.3604 17.6196 15.5C17.6196 11.6397 14.4821 8.51025 10.6118 8.51025C6.7415 8.51025 3.604 11.6397 3.604 15.5C3.604 19.3604 6.7415 22.4898 10.6118 22.4898Z" fill="#CE2457"/>
<path fill-rule="evenodd" clip-rule="evenodd" d="M10.2638 11.293C8.09563 11.4701 6.38623 13.2858 6.38623 15.5001C6.38623 17.8325 8.28063 19.722 10.619 19.722C12.95 19.722 14.8444 17.8325 14.8444 15.5001C14.8444 13.2858 13.1424 11.4701 10.9668 11.293L10.8484 14.0682C11.544 14.1789 12.0768 14.7768 12.0768 15.5001C12.0768 16.3046 11.4182 16.9542 10.619 16.9542C9.81243 16.9542 9.16123 16.3046 9.16123 15.5001C9.16123 14.7768 9.68663 14.1789 10.3822 14.0682L10.2638 11.293Z" fill="white"/>
<path d="M10.6119 10.9976C11.1145 10.9976 11.5221 10.5911 11.5221 10.0897C11.5221 9.58835 11.1145 9.18188 10.6119 9.18188C10.1092 9.18188 9.70166 9.58835 9.70166 10.0897C9.70166 10.5911 10.1092 10.9976 10.6119 10.9976Z" fill="white"/>
<path fill-rule="evenodd" clip-rule="evenodd" d="M27.1658 15.5C27.1658 16.4595 26.8106 17.2419 26.1446 17.8693C25.4786 18.4966 24.6572 18.7919 23.673 18.7919C22.6962 18.7919 21.9118 18.4966 21.2014 17.8693C20.5724 17.2419 20.2246 16.4595 20.2246 15.5C20.2246 14.5331 20.5724 13.7581 21.2458 13.1307C21.9118 12.4959 22.7332 12.2007 23.673 12.2007C24.6202 12.2007 25.4786 12.4959 26.1446 13.1307C26.8106 13.7581 27.1658 14.5331 27.1658 15.5ZM25.8708 15.5C25.8708 14.9464 25.6784 14.4593 25.2418 14.0902C24.8496 13.7212 24.302 13.5366 23.673 13.5366C23.044 13.5366 22.5408 13.7212 22.1042 14.0902C21.675 14.4593 21.4752 14.9464 21.4752 15.5C21.4752 16.0535 21.675 16.5333 22.1042 16.9023C22.4964 17.2788 23.044 17.4633 23.673 17.4633C24.302 17.4633 24.8496 17.2788 25.2418 16.9023C25.6784 16.5333 25.8708 16.0535 25.8708 15.5Z" fill="black"/>
<path fill-rule="evenodd" clip-rule="evenodd" d="M31.3097 18.4968H29.8593V13.6475H27.6245V12.5034H33.5075V13.6475H31.3097V18.4968Z" fill="black"/>
<path fill-rule="evenodd" clip-rule="evenodd" d="M36.7562 18.6517C35.735 18.6517 34.9136 18.4967 34.2476 18.2014V17.0205C34.995 17.3526 35.7794 17.5002 36.5638 17.5002C37.1484 17.5002 37.585 17.4264 37.9328 17.2788C38.251 17.1312 38.4434 16.9098 38.4434 16.6514C38.4434 16.1274 37.9772 15.906 36.993 15.906H35.7794V14.8357H36.993C37.8144 14.8357 38.2066 14.6143 38.2066 14.164C38.2066 13.6843 37.659 13.4629 36.6008 13.4629C35.8978 13.4629 35.1874 13.6105 34.44 13.9057V12.7617C35.1134 12.5033 35.9348 12.3557 36.9116 12.3557C37.696 12.3557 38.3694 12.5033 38.917 12.7986C39.4276 13.0938 39.7014 13.4998 39.7014 13.9426C39.7014 14.6143 39.3462 15.0571 38.6802 15.2786C39.5016 15.5369 39.9382 16.0167 39.9382 16.7621C39.9382 17.3157 39.6644 17.7955 39.0724 18.1276C38.4804 18.4967 37.696 18.6517 36.7562 18.6517Z" fill="black"/>
<path fill-rule="evenodd" clip-rule="evenodd" d="M47.8488 15.5C47.8488 16.4595 47.501 17.2419 46.835 17.8693C46.1616 18.4966 45.3402 18.7919 44.3634 18.7919C43.3792 18.7919 42.5948 18.4966 41.8918 17.8693C41.2184 17.2419 40.8706 16.4595 40.8706 15.5C40.8706 14.5331 41.2184 13.7581 41.8918 13.1307C42.5948 12.4959 43.4162 12.2007 44.4004 12.2007C45.3772 12.2007 46.206 12.4959 46.872 13.1307C47.501 13.7581 47.8488 14.5331 47.8488 15.5ZM46.5982 15.5C46.5982 14.9464 46.3984 14.4593 45.9692 14.0902C45.577 13.7212 45.0294 13.5366 44.4004 13.5366C43.7714 13.5366 43.2608 13.7212 42.8316 14.0902C42.395 14.4593 42.2026 14.9464 42.2026 15.5C42.2026 16.0535 42.395 16.5333 42.8316 16.9023C43.2238 17.2788 43.7714 17.4633 44.4004 17.4633C45.0294 17.4633 45.577 17.2788 45.9692 16.9023C46.3614 16.5333 46.5982 16.0535 46.5982 15.5Z" fill="black"/>
<path fill-rule="evenodd" clip-rule="evenodd" d="M52.9546 18.4968H49.1436V12.5034H52.7548C53.3838 12.5034 53.8944 12.651 54.2866 12.9094C54.6788 13.1677 54.8342 13.5737 54.8342 14.0165C54.8342 14.3118 54.7602 14.5701 54.5974 14.7989C54.442 15.0203 54.2496 15.2048 53.9684 15.3156C54.8342 15.537 55.2634 16.0537 55.2634 16.8729C55.2634 17.3896 55.071 17.7956 54.6418 18.0908C54.2496 18.3491 53.6946 18.4968 52.9546 18.4968ZM50.6014 13.5737V14.9096H52.3996C52.7178 14.9096 52.9546 14.8358 53.147 14.7251C53.3024 14.607 53.4208 14.4225 53.4208 14.2379C53.4208 13.7951 53.11 13.5737 52.444 13.5737H50.6014ZM50.6014 15.9429V17.4265H52.6808C53.0286 17.4265 53.2654 17.3527 53.4652 17.242C53.6576 17.0944 53.739 16.9468 53.739 16.681C53.739 16.4596 53.6576 16.2751 53.4652 16.1275C53.2654 15.9798 52.9916 15.9429 52.6808 15.9429H50.6014Z" fill="black"/>
<path fill-rule="evenodd" clip-rule="evenodd" d="M57.972 18.4966H56.603V12.4958H58.0534V16.5701L61.6202 12.4958H62.9966V18.4966H61.5462V14.4223L57.972 18.4966Z" fill="black"/>
<path fill-rule="evenodd" clip-rule="evenodd" d="M65.9563 18.4966H64.5059V12.4958H65.9563V18.4966Z" fill="black"/>
<path fill-rule="evenodd" clip-rule="evenodd" d="M67.4884 15.382L70.3966 18.4599H68.517L65.7568 15.4558L68.332 12.533H70.1376L67.4884 15.382Z" fill="black"/>
</g>
<defs>
<clipPath id="clip0_45_785">
<rect width="74" height="31" fill="white"/>
</clipPath>
</defs>
</svg>
