<svg width="30" height="30" viewBox="0 0 30 30" fill="none" xmlns="http://www.w3.org/2000/svg">
<path d="M15 30C23.2843 30 30 23.2843 30 15C30 6.71573 23.2843 0 15 0C6.71573 0 0 6.71573 0 15C0 23.2843 6.71573 30 15 30Z" fill="#0077FF"/>
<path fill-rule="evenodd" clip-rule="evenodd" d="M12.7944 16.7851C12.206 16.85 11.9654 16.5011 11.7012 16.1957C10.958 15.3364 10.4015 14.2864 9.88295 13.2277C8.30662 10.0097 9.56669 10.2312 6.49596 10.2312C6.04538 10.2312 5.36237 10.1388 5.19317 10.5294C4.98036 11.0207 5.56023 12.575 5.76591 13.0889C6.47999 14.873 7.59902 16.6479 8.65971 18.1537C9.90734 19.9248 12.1105 21.6757 14.4668 21.9062C14.8939 21.9479 15.6434 21.9572 16.0216 21.8697C16.5596 21.7452 16.6688 21.5348 16.6688 20.9387C16.6687 20.4068 16.6699 19.8748 16.6677 19.343C16.6651 18.7395 16.6391 18.3687 17.3461 18.4342C17.9561 18.4907 18.9093 19.3665 19.2544 19.6985C21.7395 22.0895 20.5428 21.937 23.4162 21.9328C23.9201 21.932 24.572 22.0073 24.7859 21.6418C25.2763 20.8036 22.9555 18.4157 22.3617 17.826C21.4723 16.9426 21.0164 16.7237 21.5445 15.9262C22.2722 14.8274 24.3311 11.9479 24.4462 10.8534C24.5121 10.2274 24.0093 10.2296 23.4677 10.2313C22.9365 10.233 22.4045 10.2322 21.8733 10.2304C21.2771 10.2283 20.9676 10.2964 20.7334 10.689C20.5689 10.965 20.388 11.4528 20.2263 11.781C19.6109 13.03 18.6063 14.7817 17.6538 15.5875C16.4335 16.6199 16.6684 14.9391 16.6683 13.9944C16.6681 13.0623 16.749 11.698 16.6572 10.8176C16.5917 10.1904 16.2223 10.2298 15.6504 10.2312C15.2193 10.2322 12.6809 10.2001 12.4776 10.2551C12.0306 10.3762 12.0172 10.7818 12.3522 11.2215C13.009 12.0835 12.9721 12.4358 12.9722 13.7887C12.9722 14.5533 13.1104 16.3034 12.7944 16.7851Z" fill="#FEFEFE"/>
</svg>
