<svg width="61" height="61" viewBox="0 0 61 61" fill="none" xmlns="http://www.w3.org/2000/svg">
<path fill-rule="evenodd" clip-rule="evenodd" d="M57.6782 27.8734C57.4572 27.5917 57.2646 27.3347 57.1051 27.0058C56.711 26.1944 56.8563 25.4564 57.84 25.2511C58.9699 25.0151 59.7408 26.2521 60.036 27.1654C60.3792 28.2263 60.2578 29.6528 60.26 30.7714C60.266 33.1539 59.7993 35.042 57.2422 35.711C56.8533 35.8122 56.4375 35.8848 56.0419 35.959C55.4605 36.0684 54.8776 36.1733 54.2962 36.2827C53.8594 36.3643 51.7159 36.7479 51.3728 36.9555C51.3098 37.0439 51.2229 37.2582 51.184 37.3511C51.0746 37.6081 50.9734 37.8695 50.873 38.1303C50.7194 38.5273 50.5621 38.9956 50.371 39.3725C50.2242 39.6639 50.0107 40.0857 50.0354 40.4229C50.0616 40.772 50.3583 41.1908 50.5509 41.4688C51.0791 42.2308 51.626 42.9657 52.14 43.7404C52.5663 44.3833 53.0196 45.0456 53.3747 45.7296C53.6549 46.2683 53.8774 46.843 53.8924 47.4566C53.9284 48.955 52.6067 50.3471 51.62 51.3301C50.9981 51.9497 50.4894 52.5723 49.7514 53.0795C48.7969 53.7366 47.7675 53.9718 46.6242 53.7388C45.5535 53.5208 44.4395 52.7304 43.5711 52.0883C42.8526 51.5571 42.1214 50.9592 41.3542 50.5037C40.9758 50.2789 40.3 49.914 39.8512 50.1231C39.114 50.4662 38.3835 50.7614 37.626 51.0536C37.4425 51.1248 37.0214 51.2709 36.8955 51.4297C36.7906 51.5616 36.7487 51.8583 36.7225 52.0186C36.6341 52.5663 36.5576 53.1057 36.4505 53.6511C36.2475 54.6873 36.0602 55.7287 35.8242 56.7574C35.2735 59.1587 34.0185 60.2406 31.5176 60.2683C30.6028 60.2788 29.6753 60.3275 28.762 60.2788C27.9626 60.2361 27.1429 60.1109 26.4326 59.7213C26.0003 59.4853 25.64 59.1677 25.344 58.7743C24.436 57.5681 24.0321 54.4536 23.7519 52.9094C23.6897 52.5678 23.6478 52.2261 23.5908 51.8845C23.5691 51.7549 23.5369 51.5638 23.459 51.4537C23.3129 51.2484 22.718 51.0708 22.491 50.9952C22.0692 50.8543 21.6226 50.6385 21.2128 50.461C20.9963 50.3673 20.1886 50.0062 19.9534 49.9822C19.7668 50.0489 19.3555 50.3209 19.1959 50.4205C18.7209 50.7194 18.2526 51.0296 17.7859 51.3413C17.0629 51.8253 16.3481 52.3213 15.6251 52.8045C13.6629 54.1172 11.915 54.2977 10.0741 52.6787C9.12561 51.844 8.0707 50.8708 7.34171 49.8331C6.85247 49.1378 6.49209 48.3751 6.50558 47.5083C6.51682 46.7845 6.78579 46.1057 7.11994 45.4741C7.54999 44.6612 8.09917 43.8738 8.61389 43.1111C8.91208 42.669 9.21327 42.2285 9.51071 41.7865C9.70101 41.5048 9.89281 41.2201 10.0689 40.9294C10.1753 40.7525 10.3933 40.3997 10.3626 40.1794C10.3423 40.0333 10.2157 39.8265 10.1431 39.6991C9.94676 39.35 9.77518 39.0121 9.62459 38.639C9.48449 38.2921 9.37959 37.9519 9.27545 37.5938C9.232 37.4447 9.17431 37.2282 9.07916 37.1031C8.91733 36.8903 8.44831 36.7832 8.20556 36.7247C7.82196 36.6318 7.43012 36.5584 7.04277 36.485C6.43365 36.3688 5.82378 36.2572 5.21392 36.1411C4.01067 35.9126 2.45153 35.6908 1.46631 34.9198C0.927617 34.4988 0.579228 33.9518 0.343972 33.315C-0.169245 31.9282 -0.126539 27.7783 0.59646 26.4881C0.771778 26.1757 0.993548 25.897 1.25653 25.6542C2.29195 24.6989 3.87581 24.3828 5.22516 24.1752C5.86499 24.0763 6.50857 23.9984 7.14691 23.892C7.6856 23.8029 8.25351 23.692 8.76523 23.4979C9.12786 23.3601 9.35187 22.6761 9.46051 22.3419C9.58413 21.9635 9.69202 21.5372 9.86584 21.1806C9.99096 20.9244 10.3491 20.2913 10.3476 20.0096C10.3461 19.7428 10.0614 19.3413 9.91829 19.13C9.38784 18.3463 8.83716 17.5836 8.3157 16.7909C7.80997 16.0222 7.25555 15.3449 6.87869 14.4908C6.41342 13.4351 6.36248 12.3885 6.83224 11.3201C7.25855 10.3506 9.53843 8.05048 10.4248 7.39191C11.2257 6.79703 12.1217 6.4921 13.1227 6.57901C14.2593 6.67716 15.3239 7.2593 16.25 7.89164C17.0891 8.46555 17.8578 9.12861 18.6887 9.70551C19.0595 9.96325 19.8073 10.469 20.2913 10.3184L22.8087 9.25148C22.8147 9.24924 22.8206 9.24699 22.8274 9.24474C22.9862 9.1893 23.3046 9.0874 23.4185 8.95629C23.5212 8.83716 23.5661 8.57643 23.5931 8.42734C23.6823 7.9366 23.7489 7.44286 23.8403 6.95062C24.0644 5.74512 24.2674 4.4662 24.6068 3.28917C24.8435 2.47027 25.1755 1.63789 25.8138 1.04675C26.4566 0.451867 27.2898 0.211367 28.1394 0.0989838C29.4123 -0.0703404 30.8463 0.0105749 32.1252 0.0982339C33.1831 0.170908 34.2478 0.589724 34.8996 1.45807C35.3012 1.99377 35.6114 2.89358 35.1064 3.46599C34.794 3.81962 34.316 3.85034 33.8852 3.7447C33.5907 3.67277 33.3787 3.53791 33.1921 3.30116C33.0445 3.1146 32.9599 2.93779 32.7486 2.80892C32.3882 2.5879 31.7694 2.55793 31.3625 2.55568C30.5489 2.55119 28.5739 2.39385 27.8854 2.68904C27.6307 2.79768 27.3917 2.93929 27.2373 3.17604C27.1159 3.36185 27.0523 3.59261 27.0028 3.80688C26.9256 4.14628 26.8702 4.49242 26.7983 4.83407C26.6087 5.72864 26.4296 6.62471 26.2581 7.52303C26.1487 8.09918 26.0445 8.67758 25.9254 9.25148C25.8138 9.78942 25.6737 10.5506 25.2361 10.926C24.9657 11.1583 24.5821 11.2654 24.2464 11.3673C23.6583 11.5464 23.1054 11.7344 22.5382 11.9772C21.9987 12.2087 21.4893 12.4671 20.9626 12.7219C20.6359 12.8792 20.283 13.0425 19.9137 13.053C19.3487 13.068 18.7793 12.6972 18.3246 12.3997C17.9005 12.1218 17.4832 11.8281 17.0666 11.5389C16.438 11.1036 15.8079 10.672 15.1726 10.2472C14.5934 9.8606 13.5925 9.01548 12.8815 9.00649C12.372 9.00049 11.2871 9.98347 10.929 10.3214C10.5192 10.7087 10.1243 11.1185 9.74671 11.5381C9.6126 11.688 9.47924 11.8393 9.35038 11.9936C9.29643 12.0588 9.22151 12.1427 9.17805 12.2109C8.67832 13.0598 9.29568 13.7843 9.76395 14.4638L12.6874 18.84C12.8695 19.112 12.9931 19.4034 13.0193 19.7324C13.0695 20.3497 12.7466 21.0098 12.4904 21.5552C12.0453 22.5007 11.643 23.3901 11.3141 24.388C10.8069 25.9254 10.1648 25.7516 8.78022 26.0056C7.90812 26.1659 7.03453 26.3203 6.16243 26.4821C5.56905 26.5922 4.96892 26.7039 4.38303 26.85C3.89529 26.9713 3.1131 27.1736 2.81266 27.6202C2.64334 27.8719 2.59688 28.2143 2.57441 28.5095C2.53395 29.0549 2.55343 29.6281 2.55343 30.1758C2.55343 30.7167 2.53245 31.2801 2.56991 31.8188C2.59014 32.114 2.6336 32.4549 2.79842 32.7081C3.09811 33.1667 3.89454 33.3757 4.38977 33.5008C4.98915 33.6529 5.60576 33.769 6.21413 33.8822C7.11245 34.0492 8.01301 34.2066 8.91283 34.3699C9.32865 34.4456 9.77968 34.5213 10.1828 34.6456C10.4555 34.7303 10.7125 34.8442 10.905 35.0622C11.1695 35.3611 11.2841 35.8736 11.3973 36.2505C11.646 37.0746 11.9547 37.8396 12.333 38.6135C12.5705 39.0983 12.9534 39.6197 13.0463 40.1517C13.1339 40.6544 12.9639 41.0979 12.6867 41.5115L9.7602 45.8847C9.44253 46.3605 8.85739 47.2408 9.03345 47.8529C9.12561 48.1736 9.41631 48.4748 9.64632 48.7048C10.0824 49.1386 10.5356 49.5424 10.9605 49.9919C11.356 50.41 12.1128 51.2589 12.7189 51.3338C13.2209 51.3952 13.8629 50.9959 14.2675 50.7427C14.723 50.4572 15.1673 50.1478 15.6101 49.8444C16.2395 49.4121 16.8688 48.982 17.5049 48.5609C17.9949 48.2365 18.4931 47.8829 18.9989 47.5869C19.2948 47.4139 19.6147 47.2528 19.9661 47.2603C20.328 47.2678 20.6861 47.4603 21.0008 47.6229C21.5807 47.9241 22.1433 48.2066 22.7465 48.4628C23.3369 48.7138 23.9183 48.9206 24.5251 49.1236C24.8308 49.2262 25.1957 49.3379 25.4227 49.5776C25.6669 49.8361 25.7449 50.2354 25.8123 50.5733C25.9524 51.2739 26.0753 51.9684 26.2334 52.6674C26.375 53.2923 26.4978 53.9194 26.6102 54.5502C26.6919 55.0102 26.7661 55.4725 26.8545 55.931C26.9384 56.3686 27.0642 57.0474 27.3969 57.3718C27.6958 57.6632 28.215 57.7359 28.6114 57.7726C29.0085 57.8093 29.4146 57.8153 29.8131 57.8168C30.3781 57.8183 30.9445 57.8063 31.5094 57.7951C32.6497 57.7719 33.1165 57.5246 33.3652 56.3903C33.5735 55.438 33.7638 54.4828 33.9316 53.5223C34.0418 52.8944 34.1399 52.2651 34.2425 51.6357C34.3422 51.0319 34.4516 50.1575 34.8786 49.6885C35.0974 49.4488 35.3836 49.3027 35.6796 49.1798C36.0961 49.0067 36.5404 48.8666 36.9667 48.7153C37.7796 48.4268 38.5431 48.1002 39.3065 47.7008C39.6392 47.527 40.0737 47.2603 40.4558 47.2535C40.9099 47.246 41.3924 47.5982 41.752 47.8432C42.6735 48.4718 43.5756 49.0966 44.5204 49.6938C45.074 50.0444 45.5865 50.4415 46.1305 50.8026C46.4758 51.0319 46.9022 51.2896 47.3247 51.3241C47.9353 51.3728 48.4755 50.9292 48.8786 50.5246C49.2435 50.159 49.6121 49.7964 49.977 49.4308C50.2384 49.1686 50.5022 48.9026 50.7464 48.6239C50.9884 48.3482 51.3091 47.9601 51.342 47.578C51.3743 47.2056 51.1405 46.7778 50.9592 46.4684C50.5404 45.7506 50.0324 45.0463 49.5739 44.3503C49.0854 43.6071 48.5534 42.9118 48.0492 42.1836C47.7315 41.7243 47.3966 41.2036 47.3397 40.6349C47.2917 40.1599 47.4408 39.7149 47.6544 39.2976C48.1264 38.3783 48.5122 37.4709 48.8351 36.491C48.9835 36.0392 49.1408 35.4301 49.463 35.0727C49.7949 34.7033 50.3119 34.558 50.7786 34.4471C51.1652 34.3557 51.5601 34.2845 51.9512 34.2141C52.5236 34.1114 53.096 34.0125 53.6676 33.9106C54.6461 33.7353 55.6508 33.5772 56.6106 33.321C56.9193 33.2386 57.2294 33.1075 57.4347 32.8535C57.7674 32.4422 57.7876 31.7229 57.7876 31.2202C57.7883 30.4695 57.915 28.5485 57.6782 27.8734ZM40.2588 39.4646C40.091 39.7036 39.7711 39.9696 39.5463 40.1562C39.1867 40.4551 38.8113 40.739 38.4337 41.0133C37.886 41.4118 37.2791 41.8434 36.688 42.1723C35.2495 42.971 33.5877 43.4662 31.9619 43.6917C30.8246 43.8498 29.5891 43.7996 28.4518 43.6595C27.2058 43.5052 25.8438 43.2137 24.6825 42.729C23.9887 42.439 22.8416 41.8584 22.7952 40.9878C22.7802 40.7143 22.8791 40.4633 23.0417 40.2476C23.1638 40.0842 23.3174 39.9554 23.5084 39.8804C23.9655 39.7014 24.5116 39.8909 24.9447 40.0595C25.5755 40.3045 26.1787 40.5877 26.8215 40.811C28.8961 41.531 30.8635 41.5482 32.9838 40.9713C34.4396 40.575 35.8017 39.9404 36.9982 39.0188C37.3608 38.7394 37.698 38.4397 38.0269 38.1213C38.1812 37.9714 38.4337 37.6942 38.615 37.5916C39.0773 37.3278 39.6242 37.2776 40.0565 37.6283C40.6064 38.0748 40.6551 38.9012 40.2588 39.4646ZM21.1012 20.071C21.5979 19.7863 22.2415 19.7548 22.6603 20.1954C22.8986 20.4456 22.987 20.7858 22.9383 21.1244C22.8783 21.5425 22.6251 21.9088 22.3269 22.1958C18.84 25.5486 18.105 30.9197 20.1954 35.2233C20.567 35.9882 21.0532 36.6588 21.5807 37.3211C21.792 37.5856 22.0295 37.8088 22.2355 38.0898C22.742 38.7821 22.8941 39.5613 22.0025 40.0265C20.4606 40.8305 18.5538 37.4807 18.0054 36.3951C17.0711 34.5452 16.5729 32.5538 16.5204 30.4815C16.4822 28.9815 16.7879 27.3887 17.2412 25.9636C17.8743 23.9692 19.2146 21.1559 21.1012 20.071ZM57.5411 2.80967L51.0686 3.7904C50.7404 3.84584 50.216 3.97696 49.8938 3.89529C49.6001 3.82112 49.2809 3.54091 49.0419 3.35885C48.964 3.29966 48.9228 3.21425 48.9243 3.1161L48.9385 2.26349C48.94 2.16983 48.9797 2.09042 49.0532 2.03273C50.0616 1.24679 50.2085 1.44084 51.3975 1.25054C52.5932 1.05949 53.7875 0.851952 54.9825 0.657154C55.8029 0.523793 56.6241 0.392679 57.446 0.2758C57.7524 0.232345 58.0596 0.189639 58.3675 0.155924C58.5481 0.135695 58.7601 0.109473 58.9422 0.116216C59.2591 0.128203 59.555 0.226351 59.7843 0.451867C60.6774 1.33145 59.9529 3.6046 59.7626 4.69396L57.4415 19.6657C56.941 22.8971 56.4195 25.6909 54.6431 28.49C54.1569 29.2557 53.5642 30.0454 52.9776 30.7332C52.4539 31.3468 51.2094 32.7621 50.2834 32.4639C49.9215 32.3478 49.7222 32.0196 49.6136 31.6757C49.5244 31.3933 49.5312 31.1078 49.6376 30.8313C49.7147 30.629 49.8376 30.45 49.9785 30.2866C50.1792 30.0544 50.4205 29.8708 50.6183 29.6483C52.5663 27.4531 53.9261 25.1814 54.5195 22.2722C55.1856 19.0086 55.5684 15.6791 56.0764 12.3885C56.5686 9.19679 57.1118 6.0111 57.5411 2.80967ZM24.6705 25.2182C23.2065 19.7811 23.6545 14.5313 27.1676 9.97224C27.9566 8.94955 28.8571 8.01676 29.8304 7.1679C33.9384 3.58586 38.7401 3.15281 43.9045 2.40434C44.5923 2.30469 46.0758 1.92709 46.6909 2.17208C47.6978 2.57217 47.6566 4.07661 46.5837 4.4632C46.2578 4.58083 45.884 4.65351 45.5431 4.71494C45.0583 4.8026 44.5683 4.87153 44.0806 4.93746C42.8661 5.10079 41.6493 5.24389 40.4371 5.4252C39.6617 5.54059 38.8855 5.6702 38.1183 5.83428C37.4537 5.97663 36.7764 6.14521 36.1373 6.37971C33.073 7.5028 30.3968 9.49198 28.6009 12.2341C26.9369 14.7748 26.1877 17.7229 26.336 20.7498C26.3982 22.0265 26.7376 23.4185 27.1414 24.6278C27.5707 25.9112 28.457 28.0322 29.5606 28.9838C30.3653 28.251 31.104 27.4351 31.8728 26.6664C32.1222 26.4169 32.3815 26.1847 32.634 25.9412C32.7336 25.8453 32.8737 25.7104 32.9269 25.5793C32.9891 25.4242 32.9554 25.1897 32.9314 25.0301C32.8587 24.5566 32.7411 24.0726 32.6452 23.6028C32.5351 23.0641 32.3995 22.5539 32.3208 22.0047C32.2354 21.4061 32.1372 20.3834 32.6789 19.9616C33.0543 19.6694 33.5488 19.7893 33.9444 19.9684C34.8839 20.3932 34.8921 22.264 35.1236 23.4125L37.9385 20.5438C37.8006 19.8185 37.614 19.091 37.4642 18.3673C37.3188 17.6667 37.0446 16.3638 37.1772 15.6701C37.1862 15.6229 37.2042 15.5839 37.2334 15.545C38.0853 14.4324 39.2279 14.7643 39.5793 16.0702C39.7134 16.5676 39.8145 17.0869 39.9127 17.5933C39.9696 17.884 40.0235 18.1755 40.076 18.4677L42.8391 15.748C42.8369 15.0654 42.6061 14.2001 42.4525 13.5528C42.2637 12.7601 41.949 11.5546 42.1064 10.7537C42.1154 10.7072 42.1326 10.669 42.1603 10.6315C42.4712 10.218 42.9605 9.8591 43.5052 9.95575C44.0851 10.0591 44.384 10.6113 44.5061 11.1373C44.6897 11.9315 44.859 12.7444 44.9931 13.5528C45.1063 13.4539 45.2141 13.3505 45.2988 13.2718C45.6442 12.9481 45.9791 12.6117 46.311 12.2738C46.8385 11.7367 47.3524 11.1822 47.8844 10.651C48.202 10.3334 48.504 9.99771 48.8112 9.67105C49.3851 9.06043 50.4662 7.86767 51.399 8.0325C51.6297 8.07371 51.8275 8.18909 51.9916 8.35392C52.1564 8.51949 52.2711 8.71804 52.3115 8.9503C52.4734 9.88608 51.2731 10.9694 50.6602 11.5456C50.3373 11.849 50.0069 12.1472 49.6938 12.4604C49.1626 12.9916 48.6074 13.5063 48.0709 14.0338C47.733 14.3649 47.3966 14.6998 47.073 15.0452C46.9943 15.1299 46.8909 15.2385 46.7913 15.3517C47.5967 15.485 48.4066 15.6536 49.197 15.8357C49.7275 15.9578 50.2894 16.2597 50.3913 16.8471C50.4857 17.391 50.1261 17.8773 49.7117 18.1852C49.6743 18.2137 49.6368 18.2302 49.5904 18.2392C48.9153 18.3703 47.5487 18.0736 46.8632 17.9297C46.1439 17.7784 45.4179 17.5933 44.6957 17.4562L41.9168 20.2853C42.2128 20.3355 42.5087 20.3894 42.8024 20.4456C43.2946 20.5393 43.7906 20.6389 44.2761 20.761C44.8081 20.8944 45.3505 21.2196 45.4479 21.8047C45.5371 22.3382 45.2044 22.8094 44.7976 23.1151C44.7586 23.1443 44.7197 23.1615 44.6725 23.1705C43.9659 23.3009 42.6563 23.0214 41.9453 22.8708C41.22 22.7173 40.4978 22.5322 39.7725 22.3816L36.8933 25.2227C37.5638 25.404 38.2966 25.4684 38.9634 25.6182C39.5433 25.7486 40.2783 26.0251 40.4903 26.6439C40.6327 27.0597 40.4798 27.5078 40.1831 27.815C39.8879 28.1206 39.2653 28.1064 38.8742 28.0824C38.2726 28.0457 37.653 27.9356 37.0611 27.8217C36.5636 27.7258 36.0691 27.6187 35.5732 27.5153C35.2997 27.4591 35.003 27.3917 34.7198 27.3512C34.5475 27.5939 34.3077 27.8472 34.1234 28.0435C33.7645 28.4271 33.3899 28.7987 33.0153 29.1673C32.6489 29.5269 32.2788 29.8836 31.9117 30.2424C31.7319 30.4185 31.5408 30.6006 31.3625 30.7864C32.2549 31.8158 34.2568 32.6842 35.4413 33.1082C36.6033 33.524 37.9512 33.8912 39.1844 33.9893C41.1339 34.1436 42.8931 33.8589 44.7519 33.3008C45.3423 33.124 45.9424 32.9089 46.5395 32.7643C46.9381 32.6677 47.4543 32.5755 47.8125 32.8348C48.241 33.1449 48.2305 33.7945 48.1886 34.265C48.1811 34.3474 48.1444 34.4164 48.0807 34.4688C46.6317 35.6616 43.8431 36.2752 41.985 36.4565C40.6604 36.5854 39.4204 36.5681 38.1063 36.3479C37.1121 36.1815 36.1283 35.9216 35.1498 35.6773C35.0824 35.7283 35.0157 35.7807 34.9476 35.8301C34.716 35.9987 34.477 36.1568 34.2321 36.3044C33.4896 36.7524 32.6819 37.1143 31.8443 37.3406C29.2168 38.0508 26.8822 37.2814 24.9762 35.3671C22.7854 33.1674 22.1801 30.1488 23.3803 27.2718C23.6448 26.6372 23.9872 26.1974 24.3813 25.6505C24.4832 25.5096 24.5813 25.3673 24.6705 25.2182ZM25.9412 32.5987L27.7693 30.7504C27.3047 30.157 26.8829 29.5314 26.4761 28.8976C26.3023 28.6256 26.1315 28.3522 25.9576 28.0802C25.9157 28.015 25.8722 27.9461 25.8273 27.8779C25.3201 28.5807 25.2369 29.5981 25.3133 30.423C25.3777 31.1205 25.5838 31.9507 25.9412 32.5987ZM29.5861 32.565L27.7325 34.3939C28.3799 34.7535 29.2033 34.9625 29.9038 35.0292C30.7347 35.1079 31.7521 35.0247 32.4631 34.5205C32.3155 34.4239 32.1672 34.328 32.0196 34.2321C31.5491 33.9279 31.0801 33.6229 30.6178 33.3068C30.2694 33.0685 29.921 32.8243 29.5861 32.565Z" fill="#F1BC7F"/>
</svg>
